<?xml version="1.0" encoding="utf-8"?><svg viewBox="0 0 761 231" xmlns="http://www.w3.org/2000/svg" xmlns:xlink="http://www.w3.org/1999/xlink"><style>:root>svg{display:none}:root>svg:target{display:block}</style><svg viewBox="0 0 359 78" id="alogo" xmlns="http://www.w3.org/2000/svg"><path fill="currentColor" d="M79.588 21.386c0-.45 0-.837.063-1.286v-.579c.066-.322.323-.514.645-.58.128-.063.257-.063.386-.063h19.3c1.48.063 2.897.385 4.247 1.03 1.03.514 1.995 1.157 2.83 1.993.903.837 1.61 1.866 2.19 3.024.579 1.158.9 2.381 1.029 3.733.063.58.063 1.158.063 1.737v7.85c0 .9-.063 1.736-.192 2.572-.321 1.61-.966 3.09-1.995 4.375-1.736 2.252-4.054 3.603-6.82 4.118-.58.064-1.223.13-1.802.13h-9.393c-.642.063-.965.32-.965.964-.064.258-.064.451-.064.643v13.705c-.065.643-.321.9-.965.965h-7.721c-.45-.065-.707-.322-.773-.773 0-.192 0-.32-.063-.515zm9.522 17.18c0 .193 0 .385.064.578.065.323.257.58.515.644.129.064.258.064.386.13h9.2l.773-.195c.257-.193.515-.385.642-.708.065-.192.065-.385.129-.579v-1.029c.065-.966 0-1.994 0-2.96 0-1.22.065-2.444 0-3.602 0-.45 0-.837-.064-1.287 0-.32-.192-.644-.515-.837-.192-.192-.45-.257-.708-.32h-9.328c-.13 0-.194 0-.323.063-.384.065-.707.321-.707.773-.064.256-.064.45-.064.707zM124.684 42.298v22.197c0 .128 0 .323-.064.45-.065.451-.323.707-.707.772h-7.722c-.13 0-.258 0-.387-.065-.321-.063-.513-.256-.58-.579-.062-.129-.062-.32-.062-.45V19.972c0-.129 0-.322.063-.45.129-.323.323-.515.645-.58.192-.064.386-.064.578-.064h7.271c.128.064.257.064.386.064.258.128.45.257.515.515 0 .193.064.386.064.58v1.286zM129.506 42.298V30.524c0-.322 0-.643.065-1.03 0-2.444.772-4.696 2.38-6.627 1.802-2.187 4.117-3.539 6.948-3.86.516-.063.966-.129 1.416-.129h9.201c1.286 0 2.51.192 3.667.644 1.03.385 1.995.901 2.895 1.608.902.708 1.737 1.544 2.381 2.574.965 1.351 1.544 2.896 1.737 4.568.065.515.065.965.065 1.48v5.277c0 .191-.065.32-.129.45-.129.192-.323.385-.579.385-.129.064-.323.064-.45.064h-7.334c-.13 0-.259 0-.322-.064-.323-.065-.516-.257-.579-.579-.066-.129-.066-.257-.066-.386v-4.183l-.063-.643c0-.257-.065-.515-.129-.77a1.207 1.207 0 00-.773-.709c-.192-.129-.385-.129-.642-.194h-8.494l-.45.065c-.579.13-.965.514-1.094 1.093-.064.13-.064.323-.064.515-.065.193-.065.451-.065.708v23.034c0 .257 0 .515.065.836 0 .13 0 .321.064.515.13.58.515.837 1.094.964a.696.696 0 00.322.065h8.685c.194-.065.387-.065.515-.128.387-.129.643-.387.837-.708.064-.258.13-.45.13-.708 0-.258.062-.515.062-.77v-4.442c0-.129 0-.256.066-.385.063-.257.256-.386.45-.45.13-.065.256-.065.385-.065.257-.064.451-.064.707-.064h6.241c.258 0 .516 0 .773.064.451 0 .772.321.837.771v.452c0 1.866.064 3.666 0 5.468 0 2.316-.773 4.376-2.188 6.241-1.093 1.481-2.509 2.64-4.247 3.347-1.287.578-2.573.9-3.924.9h-9.908a10.856 10.856 0 01-5.147-1.48c-2.252-1.352-3.797-3.217-4.697-5.662a9.27 9.27 0 01-.579-3.28c-.065-.387-.065-.837-.065-1.288zM163.851 42.233V21.258c0-.385-.064-.772 0-1.158 0-.192 0-.45.065-.642.13-.324.321-.516.643-.516.257-.063.45-.063.644-.063h7.206c.13 0 .322.063.45.128.258.064.385.256.451.514 0 .194 0 .32.063.515V37.02c0 .452 0 .902.065 1.416 0 .129.064.193.064.322.065.193.323.257.45.129.194-.13.323-.258.452-.451.192-.322.385-.643.58-.901a342.281 342.281 0 013.922-6.37 592.856 592.856 0 014.055-6.625 225.7 225.7 0 012.51-4.118l.45-.773c.063-.063.192-.192.257-.321.256-.258.514-.387.835-.45h9.009l.257.063c.258.065.385.32.385.516 0 .129-.064.257-.127.384-.065.194-.194.323-.258.516l-3.475 5.79c-1.608 2.574-3.152 5.147-4.697 7.72-1.22 1.995-2.38 3.926-3.602 5.92l-.387.643c-.257.515-.257 1.03-.063 1.48.13.259.256.516.385.709.773 1.415 1.544 2.765 2.252 4.117.58.966 1.094 1.93 1.61 2.96l1.736 3.087c.58.966 1.093 1.996 1.608 2.96l1.737 3.089c.515.9 1.031 1.865 1.544 2.83l1.158 2.124c.194.258.323.579.452.9.127.129.127.258.127.45a.483.483 0 01-.32.452c-.13.064-.194.129-.322.129h-8.944c-.32-.065-.579-.194-.773-.386a2.377 2.377 0 01-.45-.644c-.45-.772-.836-1.545-1.286-2.316l-2.445-4.44c-.515-.901-1.029-1.865-1.608-2.83l-1.738-3.218c-.064-.13-.128-.257-.193-.321-.129-.13-.192-.193-.257-.322a.7.7 0 00-.708 0c-.129.129-.193.193-.258.322-.192.257-.32.45-.45.708l-3.024 4.954a3.236 3.236 0 00-.515 1.737v4.888c0 .258 0 .516-.063.774v.45c-.066.32-.258.515-.579.579-.129.065-.258.065-.387.065h-7.528c-.128 0-.257-.065-.386-.065a.699.699 0 01-.514-.516c-.065-.127-.065-.321-.065-.513-.064-.387 0-.773 0-1.095V45.322zM199.366 42.298V20.936c0-.32 0-.642.064-1.029 0-.129 0-.32.065-.45a.7.7 0 01.514-.515c.065 0 .194-.064.257-.064h7.786c.128 0 .192.064.32.064.259.128.387.257.45.515.066.193.066.321.066.514.064.323.064.707.064 1.031V55.23c0 .13 0 .256.065.385.064.258.258.387.45.452.193.063.387.127.579.127h14.284c.129 0 .32 0 .45.065.258.064.45.258.514.516.065.127.065.255.065.384v7.593c0 .064 0 .192-.065.321-.064.322-.256.516-.58.58-.128.064-.255.064-.384.064h-23.87c-.13 0-.257 0-.386-.065-.321-.063-.58-.32-.644-.708v-.449c-.064-.322-.064-.579-.064-.9zM296.802 18.88c.579 0 .966.256 1.094.835.129.194.193.451.258.708.579 2.123 1.223 4.246 1.802 6.306.708 2.51 1.416 4.954 2.058 7.462.579 1.867 1.094 3.733 1.608 5.599.644 2.123 1.223 4.31 1.802 6.433.515 1.866 1.094 3.668 1.608 5.47.58 2.058 1.16 4.118 1.739 6.112l1.736 6.241c.064.193.129.45.129.643a.412.412 0 010 .386c0 .258-.13.45-.386.516-.064.063-.193.063-.322.063-.257.064-.45.064-.707.064h-6.82c-.258 0-.516 0-.773-.064-.45 0-.772-.258-.964-.644-.065-.192-.13-.321-.13-.514-.322-1.029-.578-1.994-.901-2.96-.192-.836-.45-1.607-.642-2.38l-.194-.58c-.193-.386-.45-.642-.901-.707-.192-.064-.45-.064-.707-.064h-9.91c-.513.064-.9.321-1.028.9-.13.258-.192.579-.321.901-.45 1.544-.902 3.088-1.287 4.633-.13.321-.194.579-.323.836-.127.387-.45.579-.835.579-.194.064-.323.064-.515.064h-7.4c-.193 0-.32 0-.514-.064h-.193c-.321-.129-.515-.386-.515-.644l.129-.708c.257-.771.45-1.608.707-2.444l2.51-8.815c.643-2.381 1.35-4.76 1.995-7.141.707-2.574 1.479-5.147 2.187-7.72.644-2.381 1.35-4.698 1.994-7.078l1.352-4.825c.514-1.802 1.094-3.668 1.608-5.534l.194-.773c.064-.192.192-.384.256-.579.194-.257.386-.449.708-.513zm-1.994 29.403c.129-.065.257-.065.323-.065a.62.62 0 00.45-.579v-.516c-.066-.127-.066-.321-.13-.449-.45-1.672-.9-3.282-1.415-4.955-.257-.9-.45-1.8-.707-2.702-.13-.256-.193-.579-.322-.835a.356.356 0 00-.194-.323c-.13-.258-.385-.258-.513-.064-.13.129-.194.258-.194.387-.13.321-.258.643-.322.964a200.033 200.033 0 00-1.673 5.856c-.192.642-.385 1.221-.514 1.865a2.266 2.266 0 00-.128.643.535.535 0 00.384.644c.129.064.258.064.387.129zM312.62 20.036c0-.192 0-.321.064-.513.13-.323.321-.516.708-.58.13-.065.257-.065.385-.065h18.98c1.995 0 3.861.58 5.534 1.608 2.444 1.545 3.99 3.733 4.762 6.499.192.837.321 1.737.321 2.574v9.2c0 .966-.129 1.866-.387 2.768-.45 1.67-1.286 3.216-2.508 4.439a11.314 11.314 0 01-2.123 1.802c-.194.127-.387.256-.515.45-.193.192-.258.45-.193.708.064.258.13.514.256.77.387 1.03.837 2.06 1.223 3.09 1.158 2.895 2.316 5.854 3.54 8.75l.964 2.445c.13.258.193.514.258.772.193.515-.065.9-.644.965h-8.686a1.233 1.233 0 01-.965-.708c-.192-.321-.32-.708-.45-1.03-1.287-3.087-2.51-6.176-3.797-9.263-.513-1.352-1.094-2.704-1.673-4.054a2.276 2.276 0 00-.256-.58c-.194-.386-.515-.578-.902-.643h-3.088c-.193 0-.385 0-.579.065-.385.063-.579.257-.643.579-.065.192-.065.386-.065.515v14.154c-.064.644-.385.9-1.029.965h-7.528c-.063 0-.192 0-.32-.064-.322-.065-.516-.257-.58-.644-.065-.13-.065-.257-.065-.386zm9.521 18.789c0 .192.065.385.065.513.13.258.258.387.514.45.13.066.258.066.386.13h9.201c.193-.064.387-.064.58-.13.386-.128.643-.385.772-.707.127-.193.193-.451.193-.643v-8.493l-.066-.45c-.127-.58-.513-.9-1.092-1.03-.194-.065-.323-.065-.45-.065h-9.072c-.129 0-.258.066-.387.066-.32.129-.515.32-.579.642-.065.129-.065.258-.065.387zM255.882 65.718h7.143c.708 0 1.48 0 2.187-.128a8.619 8.619 0 002.767-.837c1.222-.515 2.316-1.287 3.281-2.252a11.314 11.314 0 002.895-5.47c.13-.708.192-1.35.192-1.995V20.1c0-.13 0-.321-.063-.45-.065-.387-.32-.708-.837-.771h-7.591c-.065 0-.194 0-.323.063-.385.066-.579.258-.643.645-.065.128-.065.32-.065.513v34.229c0 .194 0 .386-.063.579-.129.707-.516 1.094-1.223 1.223-.129 0-.258.064-.385.064h-5.446l-2.714 9.523zM250.146 56.194h-11.469c-.13 0-.322 0-.451-.064-.321-.063-.515-.257-.578-.579 0-.128-.066-.257-.066-.386v-7.078c0-.129 0-.192.066-.32.063-.323.192-.516.513-.58.129-.064.323-.129.516-.129h10.616c.386-.064.643-.32.708-.642.063-.195.063-.323.063-.452v-7.399c0-.129-.063-.32-.063-.45a.783.783 0 00-.45-.45c-.194-.064-.323-.129-.516-.129h-10.422c-.13 0-.258 0-.452-.064-.256-.065-.385-.257-.513-.515 0-.129-.066-.258-.066-.387v-7.077c0-.127 0-.256.066-.32.063-.323.192-.58.513-.644a1.19 1.19 0 01.452-.129h14.282c.129 0 .323 0 .45-.065.387-.063.645-.258.645-.642.063-.258.063-.45.063-.708v-6.562c0-.258 0-.452-.063-.708 0-.452-.322-.773-.772-.837h-24c-.192 0-.321 0-.45.064-.385.065-.58.257-.643.644 0 .192-.065.321-.065.514v44.395c0 .128 0 .321.065.45.064.386.258.644.579.707.129 0 .258.065.387.065h18.341zM346.146 20.342h-2.194V18.88h5.973v1.462h-2.193v5.747h-1.586zM351.142 18.88h1.71l1.895 3.048 1.895-3.048h1.71v7.209h-1.576v-4.706l-2.029 3.079h-.04l-2.01-3.05v4.677h-1.555zM24.888 21.042a2.399 2.399 0 012.4-2.4h13.317a2.4 2.4 0 012.4 2.4v3.549H24.888zM28.934 51.72a3.449 3.449 0 00-3.449 3.448v10.164h-2.067c-2.798 0-5.029-2.27-5.024-5.069V35.255A8.105 8.105 0 0126.5 27.15h8.368a4.26 4.26 0 014.248 4.248v16.29a4.031 4.031 0 01-4.03 4.031z"/><path fill="currentColor" d="M40.88 27.023a.306.306 0 00-.22.522c1.035 1.057 1.686 2.486 1.686 3.987l.037 22.773a4.016 4.016 0 01-1.25 2.914c-.88.79-2.033 1.113-2.78 1.117h-6.15c-.128 0-.253.008-.377.021-2.962.218-3.072 2.834-3.072 3.428v3.547h14.654v-.02c1.417-.115 6.098-.845 6.098-5.545V35.65a8.626 8.626 0 00-8.627-8.626z"/><path fill="currentColor" d="M33.946 77.233c-.167 0-7.34-.02-14.886-2.063C8.867 72.411 2.61 67.232.964 60.194c-3.906-16.709 17.115-45.268 18.012-46.476.363-.53 9.303-13.51 14.974-13.51 5.67 0 14.61 12.98 14.989 13.531.882 1.187 21.903 29.746 17.997 46.455-1.645 7.038-7.902 12.217-18.096 14.976-7.545 2.043-14.718 2.063-14.89 2.063zm.005-1.307c.399 0 28.002-.157 31.712-16.03 3.769-16.12-17.572-45.107-17.788-45.398-2.48-3.627-9.787-12.984-13.925-12.984s-11.444 9.357-13.91 12.963c-.231.312-21.571 29.3-17.803 45.42 3.722 15.922 31.477 16.021 31.712 16.03z"/></svg><svg viewBox="0 0 761 117" id="artist" xmlns="http://www.w3.org/2000/svg"><path fill="none" stroke="#ff9500" stroke-miterlimit="20" stroke-width="2.14" d="M54.47 53.332V64.12H39.83V53.332zm15.924 0h13.484V37.408H70.394v-17.08H54.47v17.08H39.83v-17.08H23.906v17.08H11.063v15.924h12.843V64.12H11.063v15.924h12.843v17.08H39.83v-17.08h14.64v17.08h15.924v-17.08h13.484V64.12H70.394zM131.265 70.67h-13.484l6.806-23.759zm30.051 34.802L134.861 11.98h-20.676L87.73 105.472h20.162l4.495-15.796h24.272l4.495 15.796zM207.548 51.534c0 1.285-1.156 2.44-2.568 2.44h-20.805V30.987h20.933c1.413 0 2.44 1.027 2.44 2.44zm20.933 53.938l-13.998-34.674c7.063-3.468 12.071-10.787 12.071-19.264V33.427c0-11.815-9.632-21.447-21.446-21.447h-39.94v93.492h19.007V72.981h10.146l13.227 32.491zM294.49 11.852v0h-62.157v19.007h21.703v74.613h19.007v0-74.613 0h21.446v0zM300.91 105.472v0h19.007v0V11.98v0H300.91v0zM371.284 42.545v0h19.006v0-9.118c0-11.815-9.632-21.447-21.446-21.447h-18.622c-11.686 0-21.318 9.632-21.318 21.447v10.145c0 9.375 6.293 17.723 15.282 20.42l25.428 7.705c.9.257 1.67 1.156 1.67 2.183v10.145c0 1.413-1.156 2.44-2.44 2.44h-18.622c-1.284 0-2.31-1.027-2.31-2.44v-9.118 0h-19.008v9.118c0 11.815 9.632 21.447 21.318 21.447h18.622c11.814 0 21.446-9.632 21.446-21.447V73.88c0-9.375-6.292-17.722-15.282-20.419l-25.428-7.706c-1.027-.256-1.669-1.155-1.669-2.183V33.427c0-1.413 1.027-2.44 2.311-2.44h18.622c1.284 0 2.44 1.027 2.44 2.44zM456.299 11.852v0h-62.156v19.007h21.703v74.613h19.007v0-74.613 0h21.446v0zM481.725 30.987v0H514.6v0V11.98v0h-51.883v93.492h19.007v0V68.23v0h24.914v0-19.006 0h-24.914v0zM524.232 105.472v0h19.007v0V11.98v0h-19.007v0zM595.89 51.534c0 1.285-1.156 2.44-2.568 2.44h-20.805V30.987h20.933c1.413 0 2.44 1.027 2.44 2.44zm20.933 53.938l-13.998-34.674c7.063-3.468 12.071-10.787 12.071-19.264V33.427c0-11.815-9.632-21.447-21.446-21.447h-39.94v93.492h19.007V72.981h10.146l13.227 32.491zM664.338 42.545v0h19.006v0-9.118c0-11.815-9.632-21.447-21.446-21.447h-18.622c-11.686 0-21.318 9.632-21.318 21.447v10.145c0 9.375 6.293 17.723 15.282 20.42l25.428 7.705c.899.257 1.67 1.156 1.67 2.183v10.145c0 1.413-1.156 2.44-2.44 2.44h-18.622c-1.284 0-2.311-1.027-2.311-2.44v-9.118 0h-19.007v9.118c0 11.815 9.632 21.447 21.318 21.447h18.622c11.814 0 21.446-9.632 21.446-21.447V73.88c0-9.375-6.292-17.722-15.282-20.419l-25.428-7.706c-1.027-.256-1.67-1.155-1.67-2.183V33.427c0-1.413 1.028-2.44 2.312-2.44h18.622c1.284 0 2.44 1.027 2.44 2.44zM749.352 11.852v0h-62.156v19.007h21.703v74.613h19.007v0-74.613 0h21.446v0z"/></svg><svg viewBox="0 0 40 51" id="check" xmlns="http://www.w3.org/2000/svg"><path fill="#f79520" d="M28.892.777L11.65 32.1l-.218-12.434-10.827.203.468 30.915H12.13L39.676.777z"/></svg><svg viewBox="0 0 237 231" id="eco" xmlns="http://www.w3.org/2000/svg"><path fill="none" stroke="#f79520" stroke-miterlimit="20" stroke-width="6.11" d="M144.532 130.046c0-20.164-16.346-36.51-36.51-36.51-20.163 0-36.509 16.346-36.509 36.51 0 20.164 16.346 36.51 36.509 36.51 20.164 0 36.51-16.346 36.51-36.51zM122.731 45.855c0-8.124-6.585-14.71-14.709-14.71-8.124 0-14.709 6.586-14.709 14.71s6.585 14.709 14.71 14.709c8.123 0 14.708-6.585 14.708-14.71zM188.397 99.035c0-8.123-6.585-14.708-14.709-14.708-8.124 0-14.709 6.584-14.709 14.708 0 8.125 6.585 14.71 14.709 14.71 8.124 0 14.709-6.586 14.709-14.71zM205.092 185.284c0-8.124-6.585-14.709-14.71-14.709-8.123 0-14.708 6.585-14.708 14.709 0 8.124 6.585 14.709 14.709 14.709 8.124 0 14.709-6.585 14.709-14.709zM60.454 181.265c0-8.124-6.585-14.709-14.71-14.709-8.123 0-14.708 6.585-14.708 14.709 0 8.124 6.585 14.709 14.709 14.709 8.124 0 14.709-6.585 14.709-14.709z"/><path fill="#f79520" d="M108.022 137.522c-6.124 0-11.107-4.982-11.107-11.107 0-6.125 4.983-11.107 11.107-11.107 6.125 0 11.107 4.982 11.107 11.107 0 6.125-4.982 11.107-11.107 11.107zm-7.78-11.107c0 4.29 3.49 7.78 7.78 7.78 4.291 0 7.78-3.49 7.78-7.78s-3.489-7.78-7.78-7.78c-4.29 0-7.78 3.49-7.78 7.78zM117.419 140.775H98.626c-5.478 0-9.935 4.457-9.935 9.935v9.935h3.327v-9.935a6.616 6.616 0 016.608-6.608h18.793a6.616 6.616 0 016.608 6.608v9.935h3.327v-9.935c0-5.478-4.457-9.935-9.935-9.935z"/><path fill="none" stroke="#f79520" stroke-miterlimit="20" stroke-width="6.11" d="M56.916 171.702l25.134-20.175M178.757 176.278l-40.127-26.74M160.477 105.506l-20.443 8.644M108.022 60.564v32.973"/></svg><svg viewBox="0 0 164 168" id="eye" xmlns="http://www.w3.org/2000/svg"><path fill="#f79520" d="M14.06 122.362l-2.007-2.448 2.007-2.448c1.23-1.5 30.536-36.735 67.65-36.735 37.112 0 66.42 35.235 67.648 36.735l2.007 2.448-2.007 2.448c-1.229 1.5-30.536 36.735-67.649 36.735s-66.42-35.235-67.649-36.735zm67.65 29.01c28.063 0 52.286-23.668 59.497-31.458-7.21-7.79-31.434-31.458-59.498-31.458-28.063 0-52.287 23.668-59.498 31.458 7.208 7.787 31.433 31.458 59.498 31.458z"/><path fill="none" stroke="#f79520" stroke-miterlimit="20" stroke-width="1.53" d="M14.06 122.362l-2.007-2.448 2.007-2.448c1.23-1.5 30.536-36.735 67.65-36.735 37.112 0 66.42 35.235 67.648 36.735l2.007 2.448-2.007 2.448c-1.229 1.5-30.536 36.735-67.649 36.735s-66.42-35.235-67.649-36.735zm67.65 29.01c28.063 0 52.286-23.668 59.497-31.458-7.21-7.79-31.434-31.458-59.498-31.458-28.063 0-52.287 23.668-59.498 31.458 7.208 7.787 31.433 31.458 59.498 31.458z"/><path fill="#f79520" d="M81.71 84.594c19.506 0 35.32 15.814 35.32 35.32 0 19.507-15.814 35.32-35.32 35.32-19.508 0-35.32-15.813-35.32-35.32 0-19.506 15.812-35.32 35.32-35.32zm0 54.256c10.457 0 18.935-8.478 18.935-18.936s-8.478-18.935-18.936-18.935-18.936 8.477-18.936 18.935c0 10.458 8.478 18.936 18.936 18.936z"/><path fill="none" stroke="#f79520" stroke-miterlimit="20" stroke-width="1.53" d="M81.71 84.594c19.506 0 35.32 15.814 35.32 35.32 0 19.507-15.814 35.32-35.32 35.32-19.508 0-35.32-15.813-35.32-35.32 0-19.506 15.812-35.32 35.32-35.32zm0 54.256c10.457 0 18.935-8.478 18.935-18.936s-8.478-18.935-18.936-18.935-18.936 8.477-18.936 18.935c0 10.458 8.478 18.936 18.936 18.936z"/><path fill="#f79520" d="M81.71 63.544a5.5 5.5 0 01-5.5-5.5V13.721a5.5 5.5 0 0111 0v44.323a5.5 5.5 0 01-5.5 5.5z"/><path fill="none" stroke="#f79520" stroke-miterlimit="20" stroke-width="1.53" d="M81.71 63.544a5.5 5.5 0 01-5.5-5.5V13.721a5.5 5.5 0 0111 0v44.323a5.5 5.5 0 01-5.5 5.5z"/><path fill="#f79520" d="M37.686 82.23a5.486 5.486 0 01-3.89-1.611L9.724 56.545a5.5 5.5 0 017.779-7.777L41.576 72.84a5.502 5.502 0 01-3.89 9.389z"/><path fill="none" stroke="#f79520" stroke-miterlimit="20" stroke-width="1.53" d="M37.686 82.23a5.486 5.486 0 01-3.89-1.611L9.724 56.545a5.5 5.5 0 017.779-7.777L41.576 72.84a5.502 5.502 0 01-3.89 9.389z"/><path fill="#f79520" d="M125.912 82.05a5.502 5.502 0 01-3.89-9.389l23.893-23.893a5.5 5.5 0 117.78 7.777L129.801 80.44a5.487 5.487 0 01-3.89 1.611z"/><path fill="none" stroke="#f79520" stroke-miterlimit="20" stroke-width="1.53" d="M125.912 82.05a5.502 5.502 0 01-3.89-9.389l23.893-23.893a5.5 5.5 0 117.78 7.777L129.801 80.44a5.487 5.487 0 01-3.89 1.611z"/></svg><svg viewBox="0 0 112 104" id="handshake" xmlns="http://www.w3.org/2000/svg"><path fill="#f79520" d="M3.12 75.888a9.492 9.492 0 01-2.797-6.753 9.49 9.49 0 012.797-6.754l8.21-8.208c3.722-3.723 9.783-3.723 13.505 0 3.725 3.724 3.725 9.785.001 13.508L16.63 75.89a9.49 9.49 0 01-6.754 2.798 9.492 9.492 0 01-6.755-2.799zm3.876-9.632a4.042 4.042 0 00-1.193 2.88c0 1.086.423 2.11 1.191 2.878 1.54 1.54 4.222 1.54 5.76 0l8.207-8.208a4.039 4.039 0 001.193-2.879c0-1.087-.423-2.11-1.193-2.879a4.076 4.076 0 00-5.759 0z"/><path fill="#f79520" d="M13.073 85.202a9.485 9.485 0 01-2.797-6.752 9.49 9.49 0 012.798-6.754l8.207-8.209c3.725-3.722 9.782-3.722 13.507 0 3.723 3.726 3.723 9.784 0 13.507l-8.21 8.21A9.487 9.487 0 0119.827 88a9.489 9.489 0 01-6.753-2.799zm12.083-17.84l-8.208 8.208a4.046 4.046 0 00-1.193 2.88c0 1.087.423 2.11 1.192 2.878 1.54 1.54 4.22 1.536 5.758.001l8.21-8.208a4.08 4.08 0 00-.001-5.76 4.078 4.078 0 00-5.758.001z"/><path fill="#f79520" d="M24.33 93.212c-3.721-3.725-3.721-9.783 0-13.507l8.21-8.21a9.485 9.485 0 016.753-2.796 9.49 9.49 0 016.754 2.797c3.722 3.725 3.722 9.783 0 13.507l-8.21 8.209a9.487 9.487 0 01-6.753 2.798 9.49 9.49 0 01-6.754-2.798zM36.414 75.37l-8.21 8.209a4.08 4.08 0 000 5.759c1.538 1.538 4.222 1.538 5.759 0l8.21-8.21a4.08 4.08 0 00-.001-5.758 4.044 4.044 0 00-2.88-1.192c-1.087 0-2.11.423-2.878 1.192z"/><path fill="#f79520" d="M36.223 100.585c-3.72-3.725-3.72-9.783 0-13.507l8.208-8.21a9.49 9.49 0 016.754-2.796c2.552 0 4.95.994 6.754 2.798a9.486 9.486 0 012.798 6.753c0 2.552-.994 4.95-2.798 6.754l-8.207 8.208a9.492 9.492 0 01-6.755 2.798 9.49 9.49 0 01-6.754-2.798zm12.083-17.841l-8.208 8.208a4.078 4.078 0 000 5.759c1.538 1.537 4.221 1.539 5.758-.001l8.208-8.208a4.039 4.039 0 001.193-2.88 4.04 4.04 0 00-1.193-2.878 4.04 4.04 0 00-2.879-1.193 4.04 4.04 0 00-2.879 1.193z"/><path fill="#f79520" d="M57.18 103.865a10.76 10.76 0 01-7.655-3.17l-1.888-1.889a2.745 2.745 0 01-.002-3.876l6.429-6.428a4.073 4.073 0 000-5.758c-1.537-1.54-4.22-1.54-5.758 0l-2.26 2.26a2.739 2.739 0 11-3.875-3.873 4.08 4.08 0 000-5.762c-1.536-1.537-4.22-1.537-5.757 0l-1.625 1.627a2.739 2.739 0 11-3.875-3.874 4.08 4.08 0 000-5.76c-1.537-1.538-4.221-1.538-5.758 0l-.32.32a2.739 2.739 0 11-3.874-3.876 4.042 4.042 0 001.193-2.879c0-1.087-.423-2.11-1.193-2.879a4.076 4.076 0 00-5.76 0l-2.124 2.126a2.737 2.737 0 01-4.041-.184C-2.646 45.97-1.715 25.66 11.2 12.743 17.829 6.116 26.64 2.468 36.014 2.468h.06c14.885-.236 25.658.356 25.765.361a2.742 2.742 0 012.58 2.891c-.086 1.511-1.396 2.657-2.89 2.581-.106-.007-10.692-.599-25.41-.355h-.05c-7.965 0-15.401 3.08-20.993 8.673-10.18 10.178-11.538 25.8-3.644 37.454 3.73-3.62 9.715-3.588 13.404.1a9.481 9.481 0 012.795 6.525c2.696-.088 5.259.89 7.158 2.79a9.514 9.514 0 012.694 5.38 9.69 9.69 0 011.81-.17 9.49 9.49 0 016.754 2.798 9.498 9.498 0 012.614 4.911 9.572 9.572 0 012.524-.336c2.553 0 4.95.995 6.755 2.8a9.485 9.485 0 012.797 6.752 9.49 9.49 0 01-2.797 6.754l-4.492 4.49a5.356 5.356 0 007.514-.048c1.826-1.825 1.984-5.38 1.89-6.596a2.743 2.743 0 014.669-2.158 5.352 5.352 0 007.563 0 5.351 5.351 0 000-7.562 2.733 2.733 0 01-.802-1.938 2.74 2.74 0 014.677-1.938l1.929 1.93a5.355 5.355 0 007.565 0 5.353 5.353 0 00-.001-7.563 2.73 2.73 0 01-.802-1.938 2.742 2.742 0 014.677-1.938l.378.38a5.351 5.351 0 007.562 0 5.35 5.35 0 000-7.563L68.99 28.658a2.74 2.74 0 013.875-3.875l31.277 31.277a10.76 10.76 0 013.17 7.656 10.76 10.76 0 01-3.17 7.656c-2.366 2.364-5.565 3.387-8.654 3.121a10.8 10.8 0 01-3.162 7.94 10.839 10.839 0 01-10.25 2.852 10.774 10.774 0 01-3.118 6.655c-2.97 2.97-7.248 3.847-10.994 2.642-.433 2.021-1.326 4.31-3.128 6.112a10.76 10.76 0 01-7.656 3.171z"/><path fill="#f79520" d="M99.895 58.78a2.732 2.732 0 01-1.785-4.803 21.648 21.648 0 007.485-15.916 21.65 21.65 0 00-6.803-16.228l-11.258-10.58a21.37 21.37 0 00-24.735-3.279L32.374 24.262a7.51 7.51 0 00-3.667 4.49 7.56 7.56 0 00.579 5.79c1.853 3.453 6.1 4.913 9.66 3.33l30.65-13.648a2.734 2.734 0 012.223 4.994L41.17 42.864c-6.168 2.743-13.501.223-16.701-5.74a12.999 12.999 0 01-.994-9.946 12.928 12.928 0 016.32-7.733L60.22 3.156C70.383-2.288 82.865-.633 91.277 7.27l11.258 10.58a27.123 27.123 0 01-.857 40.267 2.723 2.723 0 01-1.783.663zM90.389 71.796a2.729 2.729 0 01-1.937-.802L78.22 60.764a2.74 2.74 0 013.875-3.875l10.23 10.23a2.742 2.742 0 01-1.937 4.677zM77.021 81.304a2.732 2.732 0 01-1.937-.801L63.965 69.384a2.74 2.74 0 013.875-3.875l11.12 11.118a2.743 2.743 0 010 3.876 2.736 2.736 0 01-1.939.801z"/></svg><svg viewBox="0 0 117 162" id="influence" xmlns="http://www.w3.org/2000/svg"><path fill="#f79520" d="M58.867 98.996c-12.412 0-22.51-10.098-22.51-22.51s10.098-22.51 22.51-22.51 22.511 10.098 22.511 22.51-10.099 22.51-22.51 22.51zM43.1 76.486c0 8.695 7.073 15.768 15.768 15.768s15.768-7.073 15.768-15.768-7.073-15.768-15.768-15.768S43.1 67.79 43.1 76.486z"/><path fill="none" stroke="#f79520" stroke-miterlimit="20" stroke-width="3.09" d="M58.867 98.996c-12.412 0-22.51-10.098-22.51-22.51s10.098-22.51 22.51-22.51 22.511 10.098 22.511 22.51-10.099 22.51-22.51 22.51zM43.1 76.486c0 8.695 7.073 15.768 15.768 15.768s15.768-7.073 15.768-15.768-7.073-15.768-15.768-15.768S43.1 67.79 43.1 76.486z"/><path fill="#f79520" d="M77.912 105.59H39.823c-11.102 0-20.134 9.031-20.134 20.133v20.135h6.742v-20.135c0-7.384 6.009-13.392 13.393-13.392h38.088c7.383 0 13.391 6.008 13.391 13.392v20.135h6.744v-20.135c0-11.102-9.033-20.134-20.136-20.134z"/><path fill="none" stroke="#f79520" stroke-miterlimit="20" stroke-width="3.09" d="M77.912 105.59v0H39.823c-11.102 0-20.134 9.031-20.134 20.133v20.135h6.742v0-20.135c0-7.384 6.009-13.392 13.393-13.392h38.088c7.383 0 13.391 6.008 13.391 13.392v20.135h6.744v0-20.135c0-11.102-9.033-20.134-20.136-20.134z"/><path fill="#f79520" d="M92.967 50.634a3.687 3.687 0 01-2.617-1.084c-17.36-17.36-45.608-17.358-62.966 0a3.702 3.702 0 01-5.234-5.234c20.247-20.246 53.19-20.246 73.434 0a3.7 3.7 0 01-2.617 6.318z"/><path fill="#f79520" d="M103.221 40.38a3.687 3.687 0 01-2.617-1.083c-11.149-11.148-25.97-17.288-41.737-17.288-15.766 0-30.587 6.14-41.736 17.288a3.702 3.702 0 01-5.234-5.234c12.546-12.547 29.226-19.456 46.97-19.456s34.425 6.909 46.971 19.456a3.7 3.7 0 01-2.617 6.318z"/><path fill="#f79520" d="M4.49 30.356a3.7 3.7 0 01-2.617-6.318C17.096 8.813 37.338.43 58.868.43c21.529 0 41.77 8.384 56.994 23.61a3.7 3.7 0 11-5.234 5.233C96.803 15.447 78.42 7.833 58.868 7.833c-19.553 0-37.935 7.614-51.761 21.44a3.687 3.687 0 01-2.617 1.083z"/></svg><svg viewBox="0 0 99 121" id="thumb" xmlns="http://www.w3.org/2000/svg"><path fill="#f79520" d="M98.41 69.371c0 4.62-2.348 8.698-5.912 11.111a13.316 13.316 0 012.685 8.014c0 4.98-2.736 9.326-6.777 11.637a13.334 13.334 0 012.29 7.486c0 7.393-6.015 13.408-13.407 13.408H42.435c-23.209 0-42.092-18.884-42.092-42.094 0-11.269 4.396-21.858 12.382-29.816 11.338-11.715 15.767-25.57 19.027-37.635a15.084 15.084 0 017.688-9.489 15.04 15.04 0 0112.157-.66 14.976 14.976 0 019.394 16.997l-3.71 18.51h28.354c7.392 0 13.407 6.014 13.407 13.408 0 3.906-1.69 7.416-4.363 9.87 2.305 2.408 3.73 5.665 3.73 9.253zM39.087 80.864c.09-.126.185-.245.277-.369a13.657 13.657 0 01.992-1.183c.231-.246.474-.48.723-.708.065-.06.122-.127.19-.185-4.2 2.96-9.067 4.002-13.595 4.002-4.523 0-8.703-1.028-11.536-2.186a3.847 3.847 0 012.901-7.123c.597.24 13.95 5.446 20.894-4.058.008-.366.021-.73.06-1.09.015-.158.048-.31.071-.467.042-.302.083-.602.144-.897.04-.182.093-.358.14-.538.066-.26.13-.523.211-.779.06-.187.134-.366.202-.549.088-.238.174-.478.276-.709.08-.185.172-.362.261-.542.108-.22.215-.44.335-.655.1-.177.21-.347.317-.52.127-.204.254-.407.391-.603.118-.169.244-.33.37-.493.144-.188.29-.374.444-.555.134-.155.274-.305.415-.455.162-.172.326-.342.497-.505.067-.064.126-.135.194-.197-.123-.128-.232-.269-.349-.402-.127-.143-.256-.283-.377-.432-.145-.18-.28-.37-.417-.557-.112-.155-.229-.307-.335-.468-.129-.194-.245-.397-.365-.598-.097-.165-.2-.327-.29-.497-.112-.208-.209-.426-.31-.64-.08-.173-.167-.34-.24-.517-.094-.225-.17-.456-.252-.686-.063-.177-.133-.35-.188-.53-.076-.247-.132-.5-.193-.75-.043-.173-.094-.34-.129-.516-.058-.285-.094-.578-.133-.87-.02-.147-.05-.292-.066-.44a13.675 13.675 0 01-.068-1.349c0-.64.061-1.266.148-1.883a13.35 13.35 0 01.486-2.183c.023-.07.052-.135.075-.205.175-.518.385-1.02.62-1.508.055-.118.11-.235.168-.35.27-.523.568-1.025.902-1.504.062-.088.13-.17.193-.258.307-.42.637-.819.99-1.199.074-.082.146-.168.223-.247.405-.417.837-.804 1.293-1.166.101-.08.205-.153.307-.23.425-.317.866-.612 1.327-.878.07-.04.135-.086.206-.125a13.276 13.276 0 011.604-.744c.06-.024.114-.058.175-.082l4.183-20.868a7.308 7.308 0 00-4.584-8.295 7.344 7.344 0 00-2.614-.487 7.277 7.277 0 00-3.315.807 7.285 7.285 0 00-3.76 4.644c-3.51 12.992-8.314 27.948-20.97 41.025-6.579 6.556-10.174 15.211-10.174 24.421 0 15.677 10.541 28.94 24.907 33.071-.026-.076-.044-.155-.069-.23a12.296 12.296 0 01-.128-.426 13.54 13.54 0 01-.202-.78c-.032-.146-.065-.289-.092-.435a13.263 13.263 0 01-.13-.856c-.017-.129-.038-.258-.05-.388a13.669 13.669 0 01-.065-1.27c0-.559.046-1.108.113-1.65.02-.16.047-.317.072-.475.065-.4.146-.796.246-1.184.037-.147.071-.295.113-.439.15-.51.32-1.01.525-1.493.02-.046.045-.088.065-.134.193-.439.411-.862.647-1.274.078-.136.162-.267.244-.4.208-.335.43-.659.666-.974.085-.112.166-.228.253-.338.324-.404.667-.792 1.034-1.156.055-.055.117-.104.173-.158.321-.307.658-.597 1.008-.87.123-.099.25-.19.377-.284.323-.235.655-.454 1-.66.08-.049.152-.109.234-.157-.009-.014-.016-.03-.026-.045a13.392 13.392 0 01-.827-1.442 14.3 14.3 0 01-.19-.393 13.422 13.422 0 01-.638-1.62c0-.005-.002-.009-.003-.013a13.28 13.28 0 01-.394-1.708 12.764 12.764 0 01-.067-.443 13.223 13.223 0 01-.138-1.813c0-.528.04-1.047.098-1.559.02-.162.05-.319.074-.479a13.268 13.268 0 01.333-1.56c.094-.337.202-.666.321-.99.055-.15.105-.3.164-.448.18-.442.378-.873.602-1.289.01-.019.017-.038.026-.056.236-.433.5-.847.78-1.25zm38.201 32.472a5.722 5.722 0 005.716-5.717 5.722 5.722 0 00-5.716-5.716H45.612a5.722 5.722 0 00-5.717 5.716 5.723 5.723 0 005.717 5.717zm4.487-19.124a5.722 5.722 0 005.716-5.716 5.723 5.723 0 00-5.716-5.718H50.1a5.727 5.727 0 00-5.717 5.718 5.726 5.726 0 004.566 5.6c.372.076.757.116 1.151.116zM85 75.088a5.723 5.723 0 005.717-5.717A5.722 5.722 0 0085 63.655H53.324a5.722 5.722 0 00-5.715 5.716 5.722 5.722 0 005.715 5.717zm.634-19.124a5.723 5.723 0 005.716-5.716 5.724 5.724 0 00-5.716-5.717H53.958a5.723 5.723 0 00-5.717 5.717 5.722 5.722 0 005.717 5.716z"/></svg></svg>