<svg xmlns="http://www.w3.org/2000/svg" width="761" height="117" viewBox="0 0 761 117"><g><g><path fill="none" stroke="#ff9500" stroke-miterlimit="20" stroke-width="2.14" d="M54.47 53.332V64.12H39.83V53.332zm15.924 0h13.484V37.408H70.394v-17.08H54.47v17.08H39.83v-17.08H23.906v17.08H11.063v15.924h12.843V64.12H11.063v15.924h12.843v17.08H39.83v-17.08h14.64v17.08h15.924v-17.08h13.484V64.12H70.394z"/></g><g><path fill="none" stroke="#ff9500" stroke-miterlimit="20" stroke-width="2.14" d="M131.265 70.67h-13.484l6.806-23.759zm30.051 34.802L134.861 11.98h-20.676L87.73 105.472h20.162l4.495-15.796h24.272l4.495 15.796z"/></g><g><path fill="none" stroke="#ff9500" stroke-miterlimit="20" stroke-width="2.14" d="M207.548 51.534c0 1.285-1.156 2.44-2.568 2.44h-20.805V30.987h20.933c1.413 0 2.44 1.027 2.44 2.44zm20.933 53.938l-13.998-34.674c7.063-3.468 12.071-10.787 12.071-19.264V33.427c0-11.815-9.632-21.447-21.446-21.447h-39.94v93.492h19.007V72.981h10.146l13.227 32.491z"/></g><g><path fill="none" stroke="#ff9500" stroke-miterlimit="20" stroke-width="2.14" d="M294.49 11.852v0h-62.157v19.007h21.703v74.613h19.007v0-74.613 0h21.446v0z"/></g><g><path fill="none" stroke="#ff9500" stroke-miterlimit="20" stroke-width="2.14" d="M300.91 105.472v0h19.007v0V11.98v0H300.91v0z"/></g><g><path fill="none" stroke="#ff9500" stroke-miterlimit="20" stroke-width="2.14" d="M371.284 42.545v0h19.006v0-9.118c0-11.815-9.632-21.447-21.446-21.447h-18.622c-11.686 0-21.318 9.632-21.318 21.447v10.145c0 9.375 6.293 17.723 15.282 20.42l25.428 7.705c.9.257 1.67 1.156 1.67 2.183v10.145c0 1.413-1.156 2.44-2.44 2.44h-18.622c-1.284 0-2.31-1.027-2.31-2.44v-9.118 0h-19.008v9.118c0 11.815 9.632 21.447 21.318 21.447h18.622c11.814 0 21.446-9.632 21.446-21.447V73.88c0-9.375-6.292-17.722-15.282-20.419l-25.428-7.706c-1.027-.256-1.669-1.155-1.669-2.183V33.427c0-1.413 1.027-2.44 2.311-2.44h18.622c1.284 0 2.44 1.027 2.44 2.44z"/></g><g><path fill="none" stroke="#ff9500" stroke-miterlimit="20" stroke-width="2.14" d="M456.299 11.852v0h-62.156v19.007h21.703v74.613h19.007v0-74.613 0h21.446v0z"/></g><g><path fill="none" stroke="#ff9500" stroke-miterlimit="20" stroke-width="2.14" d="M481.725 30.987v0H514.6v0V11.98v0h-51.883v93.492h19.007v0V68.23v0h24.914v0-19.006 0h-24.914v0z"/></g><g><path fill="none" stroke="#ff9500" stroke-miterlimit="20" stroke-width="2.14" d="M524.232 105.472v0h19.007v0V11.98v0h-19.007v0z"/></g><g><path fill="none" stroke="#ff9500" stroke-miterlimit="20" stroke-width="2.14" d="M595.89 51.534c0 1.285-1.156 2.44-2.568 2.44h-20.805V30.987h20.933c1.413 0 2.44 1.027 2.44 2.44zm20.933 53.938l-13.998-34.674c7.063-3.468 12.071-10.787 12.071-19.264V33.427c0-11.815-9.632-21.447-21.446-21.447h-39.94v93.492h19.007V72.981h10.146l13.227 32.491z"/></g><g><path fill="none" stroke="#ff9500" stroke-miterlimit="20" stroke-width="2.14" d="M664.338 42.545v0h19.006v0-9.118c0-11.815-9.632-21.447-21.446-21.447h-18.622c-11.686 0-21.318 9.632-21.318 21.447v10.145c0 9.375 6.293 17.723 15.282 20.42l25.428 7.705c.899.257 1.67 1.156 1.67 2.183v10.145c0 1.413-1.156 2.44-2.44 2.44h-18.622c-1.284 0-2.311-1.027-2.311-2.44v-9.118 0h-19.007v9.118c0 11.815 9.632 21.447 21.318 21.447h18.622c11.814 0 21.446-9.632 21.446-21.447V73.88c0-9.375-6.292-17.722-15.282-20.419l-25.428-7.706c-1.027-.256-1.67-1.155-1.67-2.183V33.427c0-1.413 1.028-2.44 2.312-2.44h18.622c1.284 0 2.44 1.027 2.44 2.44z"/></g><g><path fill="none" stroke="#ff9500" stroke-miterlimit="20" stroke-width="2.14" d="M749.352 11.852v0h-62.156v19.007h21.703v74.613h19.007v0-74.613 0h21.446v0z"/></g></g></svg>