<svg xmlns="http://www.w3.org/2000/svg" width="237" height="231" viewBox="0 0 237 231"><g><g><path fill="none" stroke="#f79520" stroke-miterlimit="20" stroke-width="6.11" d="M144.532 130.046c0-20.164-16.346-36.51-36.51-36.51-20.163 0-36.509 16.346-36.509 36.51 0 20.164 16.346 36.51 36.509 36.51 20.164 0 36.51-16.346 36.51-36.51z"/></g><g><path fill="none" stroke="#f79520" stroke-miterlimit="20" stroke-width="6.11" d="M122.731 45.855c0-8.124-6.585-14.71-14.709-14.71-8.124 0-14.709 6.586-14.709 14.71s6.585 14.709 14.71 14.709c8.123 0 14.708-6.585 14.708-14.71z"/></g><g><path fill="none" stroke="#f79520" stroke-miterlimit="20" stroke-width="6.11" d="M188.397 99.035c0-8.123-6.585-14.708-14.709-14.708-8.124 0-14.709 6.584-14.709 14.708 0 8.125 6.585 14.71 14.709 14.71 8.124 0 14.709-6.586 14.709-14.71z"/></g><g><path fill="none" stroke="#f79520" stroke-miterlimit="20" stroke-width="6.11" d="M205.092 185.284c0-8.124-6.585-14.709-14.71-14.709-8.123 0-14.708 6.585-14.708 14.709 0 8.124 6.585 14.709 14.709 14.709 8.124 0 14.709-6.585 14.709-14.709z"/></g><g><path fill="none" stroke="#f79520" stroke-miterlimit="20" stroke-width="6.11" d="M60.454 181.265c0-8.124-6.585-14.709-14.71-14.709-8.123 0-14.708 6.585-14.708 14.709 0 8.124 6.585 14.709 14.709 14.709 8.124 0 14.709-6.585 14.709-14.709z"/></g><g><path fill="#f79520" d="M108.022 137.522c-6.124 0-11.107-4.982-11.107-11.107 0-6.125 4.983-11.107 11.107-11.107 6.125 0 11.107 4.982 11.107 11.107 0 6.125-4.982 11.107-11.107 11.107zm-7.78-11.107c0 4.29 3.49 7.78 7.78 7.78 4.291 0 7.78-3.49 7.78-7.78s-3.489-7.78-7.78-7.78c-4.29 0-7.78 3.49-7.78 7.78z"/></g><g><path fill="#f79520" d="M117.419 140.775H98.626c-5.478 0-9.935 4.457-9.935 9.935v9.935h3.327v-9.935a6.616 6.616 0 0 1 6.608-6.608h18.793a6.616 6.616 0 0 1 6.608 6.608v9.935h3.327v-9.935c0-5.478-4.457-9.935-9.935-9.935z"/></g><g><path fill="none" stroke="#f79520" stroke-miterlimit="20" stroke-width="6.11" d="M56.916 171.702l25.134-20.175"/></g><g><path fill="none" stroke="#f79520" stroke-miterlimit="20" stroke-width="6.11" d="M178.757 176.278l-40.127-26.74"/></g><g><path fill="none" stroke="#f79520" stroke-miterlimit="20" stroke-width="6.11" d="M160.477 105.506l-20.443 8.644"/></g><g><path fill="none" stroke="#f79520" stroke-miterlimit="20" stroke-width="6.11" d="M108.022 60.564v32.973"/></g></g></svg>