<svg xmlns="http://www.w3.org/2000/svg" width="164" height="168" viewBox="0 0 164 168"><g><g><path fill="#f79520" d="M14.06 122.362l-2.007-2.448 2.007-2.448c1.23-1.5 30.536-36.735 67.65-36.735 37.112 0 66.42 35.235 67.648 36.735l2.007 2.448-2.007 2.448c-1.229 1.5-30.536 36.735-67.649 36.735s-66.42-35.235-67.649-36.735zm67.65 29.01c28.063 0 52.286-23.668 59.497-31.458-7.21-7.79-31.434-31.458-59.498-31.458-28.063 0-52.287 23.668-59.498 31.458 7.208 7.787 31.433 31.458 59.498 31.458z"/></g><g><path fill="none" stroke="#f79520" stroke-miterlimit="20" stroke-width="1.53" d="M14.06 122.362l-2.007-2.448 2.007-2.448c1.23-1.5 30.536-36.735 67.65-36.735 37.112 0 66.42 35.235 67.648 36.735l2.007 2.448-2.007 2.448c-1.229 1.5-30.536 36.735-67.649 36.735s-66.42-35.235-67.649-36.735zm67.65 29.01c28.063 0 52.286-23.668 59.497-31.458-7.21-7.79-31.434-31.458-59.498-31.458-28.063 0-52.287 23.668-59.498 31.458 7.208 7.787 31.433 31.458 59.498 31.458z"/></g><g><path fill="#f79520" d="M81.71 84.594c19.506 0 35.32 15.814 35.32 35.32 0 19.507-15.814 35.32-35.32 35.32-19.508 0-35.32-15.813-35.32-35.32 0-19.506 15.812-35.32 35.32-35.32zm0 54.256c10.457 0 18.935-8.478 18.935-18.936s-8.478-18.935-18.936-18.935-18.936 8.477-18.936 18.935c0 10.458 8.478 18.936 18.936 18.936z"/></g><g><path fill="none" stroke="#f79520" stroke-miterlimit="20" stroke-width="1.53" d="M81.71 84.594c19.506 0 35.32 15.814 35.32 35.32 0 19.507-15.814 35.32-35.32 35.32-19.508 0-35.32-15.813-35.32-35.32 0-19.506 15.812-35.32 35.32-35.32zm0 54.256c10.457 0 18.935-8.478 18.935-18.936s-8.478-18.935-18.936-18.935-18.936 8.477-18.936 18.935c0 10.458 8.478 18.936 18.936 18.936z"/></g><g><path fill="#f79520" d="M81.71 63.544a5.5 5.5 0 0 1-5.5-5.5V13.721a5.5 5.5 0 0 1 11 0v44.323a5.5 5.5 0 0 1-5.5 5.5z"/></g><g><path fill="none" stroke="#f79520" stroke-miterlimit="20" stroke-width="1.53" d="M81.71 63.544a5.5 5.5 0 0 1-5.5-5.5V13.721a5.5 5.5 0 0 1 11 0v44.323a5.5 5.5 0 0 1-5.5 5.5z"/></g><g><path fill="#f79520" d="M37.686 82.23a5.486 5.486 0 0 1-3.89-1.611L9.724 56.545a5.5 5.5 0 0 1 7.779-7.777L41.576 72.84a5.502 5.502 0 0 1-3.89 9.389z"/></g><g><path fill="none" stroke="#f79520" stroke-miterlimit="20" stroke-width="1.53" d="M37.686 82.23a5.486 5.486 0 0 1-3.89-1.611L9.724 56.545a5.5 5.5 0 0 1 7.779-7.777L41.576 72.84a5.502 5.502 0 0 1-3.89 9.389z"/></g><g><path fill="#f79520" d="M125.912 82.05a5.502 5.502 0 0 1-3.89-9.389l23.893-23.893a5.5 5.5 0 1 1 7.78 7.777L129.801 80.44a5.487 5.487 0 0 1-3.89 1.611z"/></g><g><path fill="none" stroke="#f79520" stroke-miterlimit="20" stroke-width="1.53" d="M125.912 82.05a5.502 5.502 0 0 1-3.89-9.389l23.893-23.893a5.5 5.5 0 1 1 7.78 7.777L129.801 80.44a5.487 5.487 0 0 1-3.89 1.611z"/></g></g></svg>