<svg xmlns="http://www.w3.org/2000/svg" width="117" height="162" viewBox="0 0 117 162"><g><g><path fill="#f79520" d="M58.867 98.996c-12.412 0-22.51-10.098-22.51-22.51s10.098-22.51 22.51-22.51 22.511 10.098 22.511 22.51-10.099 22.51-22.51 22.51zM43.1 76.486c0 8.695 7.073 15.768 15.768 15.768s15.768-7.073 15.768-15.768-7.073-15.768-15.768-15.768S43.1 67.79 43.1 76.486z"/></g><g><path fill="none" stroke="#f79520" stroke-miterlimit="20" stroke-width="3.09" d="M58.867 98.996c-12.412 0-22.51-10.098-22.51-22.51s10.098-22.51 22.51-22.51 22.511 10.098 22.511 22.51-10.099 22.51-22.51 22.51zM43.1 76.486c0 8.695 7.073 15.768 15.768 15.768s15.768-7.073 15.768-15.768-7.073-15.768-15.768-15.768S43.1 67.79 43.1 76.486z"/></g><g><path fill="#f79520" d="M77.912 105.59H39.823c-11.102 0-20.134 9.031-20.134 20.133v20.135h6.742v-20.135c0-7.384 6.009-13.392 13.393-13.392h38.088c7.383 0 13.391 6.008 13.391 13.392v20.135h6.744v-20.135c0-11.102-9.033-20.134-20.136-20.134z"/></g><g><path fill="none" stroke="#f79520" stroke-miterlimit="20" stroke-width="3.09" d="M77.912 105.59v0H39.823c-11.102 0-20.134 9.031-20.134 20.133v20.135h6.742v0-20.135c0-7.384 6.009-13.392 13.393-13.392h38.088c7.383 0 13.391 6.008 13.391 13.392v20.135h6.744v0-20.135c0-11.102-9.033-20.134-20.136-20.134z"/></g><g><path fill="#f79520" d="M92.967 50.634a3.687 3.687 0 0 1-2.617-1.084c-17.36-17.36-45.608-17.358-62.966 0a3.702 3.702 0 0 1-5.234-5.234c20.247-20.246 53.19-20.246 73.434 0a3.7 3.7 0 0 1-2.617 6.318z"/></g><g><path fill="#f79520" d="M103.221 40.38a3.687 3.687 0 0 1-2.617-1.083c-11.149-11.148-25.97-17.288-41.737-17.288-15.766 0-30.587 6.14-41.736 17.288a3.702 3.702 0 0 1-5.234-5.234c12.546-12.547 29.226-19.456 46.97-19.456s34.425 6.909 46.971 19.456a3.7 3.7 0 0 1-2.617 6.318z"/></g><g><path fill="#f79520" d="M4.49 30.356a3.7 3.7 0 0 1-2.617-6.318C17.096 8.813 37.338.43 58.868.43c21.529 0 41.77 8.384 56.994 23.61a3.7 3.7 0 1 1-5.234 5.233C96.803 15.447 78.42 7.833 58.868 7.833c-19.553 0-37.935 7.614-51.761 21.44a3.687 3.687 0 0 1-2.617 1.083z"/></g></g></svg>