<svg xmlns="http://www.w3.org/2000/svg" width="378" height="88" viewBox="0 0 378 88"><g><g><path fill="currentColor" d="M68.402 34.596c7.13 13.71 9.788 24.762 7.897 32.849-1.4 5.987-6.23 13.98-21.294 18.059-8.368 2.265-16.237 2.29-16.573 2.29-.331 0-8.2-.025-16.565-2.29C6.802 81.426 1.97 73.432.572 67.444c-1.891-8.086.767-19.14 7.9-32.851 5.16-9.92 10.883-17.762 11.68-18.84C22.697 12.033 31.363.182 38.437.182c7.058 0 15.748 11.87 18.298 15.593.795 1.073 6.497 8.88 11.668 18.82zm-39.583-5.602h19.226v-3.765a2.547 2.547 0 0 0-2.547-2.547H31.365a2.546 2.546 0 0 0-2.546 2.546zm.634 32.449a3.66 3.66 0 0 1 3.66-3.66h6.526a4.277 4.277 0 0 0 4.278-4.277V36.218a4.521 4.521 0 0 0-4.508-4.508h-8.881a8.6 8.6 0 0 0-8.601 8.6v26.54c-.004 2.97 2.362 5.38 5.332 5.38h2.194zM54.945 40.73a9.155 9.155 0 0 0-9.156-9.155.325.325 0 0 0-.233.554c1.1 1.122 1.79 2.639 1.79 4.232l.04 24.167a4.26 4.26 0 0 1-1.327 3.092c-.936.838-2.157 1.18-2.951 1.185h-6.526a3.75 3.75 0 0 0-.4.023c-3.143.23-3.26 3.008-3.26 3.638v3.764h15.55v-.022c1.505-.121 6.473-.895 6.473-5.884z"/></g><g><path fill="currentColor" d="M94.308 25.58c0-.482 0-.896.067-1.377v-.619c.07-.344.346-.55.69-.62.137-.068.275-.068.413-.068h20.65c1.585.068 3.1.412 4.544 1.101 1.103.552 2.134 1.24 3.029 2.134.965.895 1.723 1.996 2.342 3.235.618 1.24.962 2.547 1.1 3.994.069.62.069 1.24.069 1.858v8.398c0 .963-.069 1.858-.207 2.753-.343 1.723-1.032 3.305-2.133 4.682-1.859 2.41-4.338 3.854-7.298 4.405-.618.07-1.307.138-1.927.138h-10.05c-.687.068-1.033.344-1.033 1.033-.068.276-.068.482-.068.688v14.663c-.07.688-.344.963-1.033 1.033h-8.26c-.483-.07-.758-.345-.828-.827 0-.206 0-.343-.067-.55zm10.188 18.38c0 .207 0 .413.068.62.07.345.276.618.55.688.139.068.277.068.415.138h9.843l.827-.208c.275-.206.55-.41.687-.757.07-.205.07-.41.138-.619v-1.1c.07-1.034 0-2.135 0-3.168 0-1.307.07-2.615 0-3.855 0-.48 0-.895-.068-1.376 0-.344-.206-.689-.551-.895-.206-.206-.482-.276-.758-.344h-9.98c-.138 0-.208 0-.346.068-.411.07-.757.344-.757.827-.068.274-.068.482-.068.758z"/></g><g><path fill="currentColor" d="M142.558 47.954v23.749c0 .138 0 .346-.068.482-.07.483-.347.757-.758.827h-8.262c-.137 0-.275 0-.413-.07-.343-.068-.55-.274-.62-.62-.067-.137-.067-.343-.067-.481V24.067c0-.137 0-.345.068-.481.138-.345.345-.551.689-.621.206-.068.414-.068.62-.068H141.525c.138.068.276.068.414.068.275.137.48.276.55.55 0 .207.069.415.069.62v1.377z"/></g><g><path fill="currentColor" d="M147.717 47.954V35.356c0-.343 0-.687.07-1.1 0-2.616.825-5.026 2.546-7.092 1.928-2.34 4.405-3.786 7.434-4.13.552-.067 1.033-.137 1.515-.137h9.844c1.377 0 2.685.205 3.924.689 1.101.41 2.134.963 3.097 1.72.965.757 1.859 1.653 2.548 2.753 1.033 1.447 1.652 3.1 1.858 4.888.07.55.07 1.033.07 1.584v5.645c0 .206-.07.343-.138.48-.138.207-.346.415-.62.415-.137.068-.345.068-.481.068h-7.848c-.138 0-.276 0-.344-.068-.345-.07-.551-.276-.619-.62-.07-.138-.07-.275-.07-.413v-4.476l-.068-.687c0-.275-.07-.551-.138-.825a1.296 1.296 0 0 0-.827-.758c-.206-.137-.412-.137-.688-.207h-9.087l-.481.07c-.62.137-1.033.549-1.171 1.169-.068.137-.068.345-.068.55-.07.207-.07.482-.07.758v24.644c0 .276 0 .552.07.895 0 .138 0 .344.068.552.138.619.551.895 1.171 1.03.138.07.275.07.343.07h9.293c.208-.07.414-.07.552-.137.413-.138.687-.414.895-.757.068-.276.138-.482.138-.758 0-.275.068-.551.068-.825V55.595c0-.138 0-.274.07-.412.068-.275.274-.414.481-.483.138-.068.274-.068.412-.068.276-.068.483-.068.757-.068h6.678c.275 0 .551 0 .827.068.481 0 .825.343.895.825v.483c0 1.996.068 3.923 0 5.85 0 2.478-.827 4.682-2.342 6.678-1.169 1.585-2.683 2.823-4.543 3.58-1.377.62-2.754.964-4.198.964h-10.602a11.639 11.639 0 0 1-5.507-1.583c-2.409-1.446-4.062-3.442-5.025-6.058a9.919 9.919 0 0 1-.619-3.51c-.07-.414-.07-.896-.07-1.377z"/></g><g><path fill="currentColor" d="M184.464 47.884V25.442c0-.412-.068-.826 0-1.239 0-.206 0-.482.07-.688.138-.345.344-.55.687-.55.276-.069.482-.069.689-.069H193.621c.138 0 .344.068.481.138.276.068.412.274.482.55 0 .207 0 .343.068.551V42.308c0 .483 0 .964.07 1.514 0 .138.068.208.068.345.07.206.345.274.481.138.208-.138.346-.275.484-.483.206-.344.412-.688.619-.963 1.377-2.272 2.754-4.544 4.198-6.816a654.78 654.78 0 0 1 4.338-7.089 243.48 243.48 0 0 1 2.685-4.405l.482-.828c.068-.068.206-.206.275-.343a1.63 1.63 0 0 1 .894-.482h9.638l.276.068c.276.07.412.344.412.551 0 .138-.068.276-.136.412-.07.208-.208.346-.276.552l-3.718 6.196c-1.721 2.753-3.373 5.506-5.025 8.26-1.307 2.134-2.548 4.2-3.855 6.333l-.413.688c-.276.551-.276 1.102-.068 1.584.138.276.274.552.412.757.827 1.515 1.652 2.96 2.409 4.406a46.07 46.07 0 0 1 1.722 3.167l1.858 3.303c.62 1.033 1.17 2.135 1.721 3.167l1.858 3.304a115.42 115.42 0 0 1 1.653 3.03l1.238 2.271c.208.276.346.62.484.963.136.138.136.276.136.482a.518.518 0 0 1-.344.483c-.138.068-.206.138-.344.138h-9.568c-.344-.07-.62-.208-.827-.414a2.491 2.491 0 0 1-.482-.689c-.482-.825-.895-1.652-1.377-2.477l-2.615-4.75c-.551-.964-1.101-1.996-1.721-3.029l-1.86-3.442c-.068-.138-.136-.276-.205-.344-.138-.138-.206-.206-.276-.344a.744.744 0 0 0-.757 0c-.138.138-.206.206-.276.344a4.687 4.687 0 0 0-.482.757l-3.235 5.301a3.467 3.467 0 0 0-.551 1.858v5.231c0 .276 0 .552-.068.828v.481c-.07.344-.276.551-.619.62-.138.07-.276.07-.414.07h-8.054c-.138 0-.276-.07-.414-.07a.744.744 0 0 1-.549-.552c-.07-.136-.07-.344-.07-.549-.068-.414 0-.828 0-1.17V51.188z"/></g><g><path fill="currentColor" d="M222.462 47.954V25.099c0-.344 0-.688.068-1.102 0-.137 0-.343.07-.481a.75.75 0 0 1 .549-.551c.07 0 .208-.068.276-.068h8.329c.139 0 .207.068.345.068.275.137.413.276.48.55.07.207.07.345.07.55.069.346.069.758.069 1.103V61.79c0 .138 0 .274.07.412.068.275.276.413.48.483.207.068.415.136.62.136h15.283c.139 0 .345 0 .482.07a.742.742 0 0 1 .55.55c.07.137.07.275.07.413v8.124c0 .068 0 .206-.07.344-.068.343-.274.55-.62.619-.137.07-.273.07-.411.07h-25.539c-.138 0-.276 0-.414-.07-.343-.068-.62-.344-.69-.757v-.482c-.067-.344-.067-.62-.067-.963z"/></g><g><path fill="currentColor" d="M326.712 22.898c.62 0 1.033.273 1.17.893.138.208.206.483.276.757.62 2.272 1.31 4.544 1.928 6.747.757 2.686 1.515 5.301 2.202 7.985.62 1.997 1.171 3.994 1.721 5.99.69 2.272 1.308 4.611 1.927 6.883.553 1.996 1.172 3.924 1.722 5.852.62 2.203 1.24 4.406 1.86 6.54l1.858 6.677c.068.206.138.482.138.688a.444.444 0 0 1 0 .413c0 .276-.138.482-.414.552-.068.068-.205.068-.343.068-.276.068-.482.068-.758.068h-7.296c-.276 0-.552 0-.827-.068-.482 0-.826-.276-1.032-.69-.07-.205-.138-.343-.138-.549-.345-1.1-.62-2.134-.964-3.167-.206-.895-.482-1.72-.688-2.547l-.207-.62c-.206-.413-.482-.687-.964-.757-.206-.068-.481-.068-.757-.068h-10.601c-.55.068-.964.344-1.101.963-.138.276-.206.62-.344.963-.482 1.653-.965 3.305-1.377 4.957-.138.344-.208.62-.345.895-.137.414-.482.62-.894.62-.207.068-.345.068-.551.068h-7.916c-.208 0-.344 0-.552-.068h-.206c-.343-.138-.551-.414-.551-.69l.138-.756c.275-.826.48-1.72.757-2.616l2.685-9.43c.688-2.548 1.445-5.094 2.134-7.64.758-2.755 1.583-5.508 2.34-8.262.689-2.547 1.447-5.026 2.134-7.572l1.446-5.163c.55-1.928 1.17-3.924 1.72-5.92l.209-.828c.068-.205.205-.41.274-.619.207-.276.413-.48.757-.549zm-2.133 31.46c.137-.07.275-.07.345-.07a.662.662 0 0 0 .482-.62v-.552c-.07-.136-.07-.343-.138-.48a151.166 151.166 0 0 0-1.515-5.302c-.275-.963-.481-1.926-.757-2.89-.138-.275-.206-.62-.344-.895a.382.382 0 0 0-.207-.345c-.138-.276-.412-.276-.55-.068-.138.138-.208.276-.208.413-.137.344-.275.688-.343 1.032a213.312 213.312 0 0 0-1.79 6.265c-.206.688-.412 1.307-.55 1.996-.07.206-.138.482-.138.688a.574.574 0 0 0 .412.69c.138.067.276.067.413.137z"/></g><g><path fill="currentColor" d="M343.636 24.135c0-.206 0-.344.07-.55.138-.345.343-.55.757-.619.138-.07.276-.07.412-.07h20.308c2.134 0 4.13.62 5.92 1.72 2.616 1.653 4.268 3.994 5.095 6.953.206.895.344 1.86.344 2.754v9.844a10.59 10.59 0 0 1-.414 2.961c-.481 1.79-1.377 3.441-2.683 4.75a12.192 12.192 0 0 1-2.272 1.928c-.208.135-.414.274-.552.481-.205.206-.275.482-.205.758.068.275.137.55.274.825.413 1.101.895 2.203 1.308 3.304 1.239 3.098 2.478 6.265 3.786 9.363l1.033 2.616c.138.275.206.55.276.825.206.551-.07.965-.69 1.033h-9.292c-.482-.068-.827-.344-1.033-.757-.206-.344-.344-.757-.482-1.1-1.376-3.306-2.685-6.61-4.062-9.914-.55-1.446-1.17-2.893-1.79-4.337a2.472 2.472 0 0 0-.274-.62c-.207-.413-.551-.619-.965-.689H355.2c-.206 0-.412 0-.62.07-.412.068-.62.276-.687.62-.07.205-.07.413-.07.551v15.143c-.068.69-.412.965-1.101 1.033h-8.054c-.068 0-.206 0-.344-.068-.344-.07-.551-.276-.62-.689-.07-.138-.07-.276-.07-.414zm10.188 20.102c0 .206.07.412.07.55.138.275.275.413.549.481.138.07.276.07.414.138h9.844c.206-.068.414-.068.62-.138.413-.138.689-.41.827-.757.136-.206.206-.482.206-.688v-9.087l-.07-.48c-.136-.62-.55-.964-1.17-1.102-.207-.07-.345-.07-.481-.07h-9.706c-.138 0-.276.07-.414.07-.344.138-.551.344-.62.687-.07.138-.07.276-.07.414z"/></g><g><path fill="currentColor" d="M282.93 73.011h7.643c.758 0 1.583 0 2.34-.138a9.18 9.18 0 0 0 2.96-.895c1.308-.55 2.479-1.377 3.512-2.409 1.582-1.653 2.615-3.649 3.097-5.852.138-.758.206-1.445.206-2.135V24.203c0-.138 0-.344-.068-.482-.07-.413-.344-.757-.895-.825h-8.123c-.07 0-.207 0-.345.068-.412.07-.62.276-.688.69-.07.137-.07.343-.07.55v36.621c0 .208 0 .414-.067.62-.138.757-.552 1.17-1.31 1.308-.137 0-.275.07-.411.07h-5.826L281.98 73.01z"/></g><g><path fill="currentColor" d="M276.793 62.822h-12.271c-.138 0-.344 0-.482-.068-.344-.068-.55-.276-.619-.62 0-.138-.07-.275-.07-.413V54.148c0-.138 0-.206.07-.344.068-.343.205-.551.55-.62.137-.067.345-.137.551-.137H275.88c.414-.068.688-.344.758-.687.068-.208.068-.346.068-.483V43.96c0-.138-.068-.344-.068-.481a.836.836 0 0 0-.482-.482c-.208-.068-.345-.138-.55-.138h-11.153c-.137 0-.275 0-.483-.068-.274-.07-.412-.276-.549-.551 0-.138-.07-.276-.07-.414V34.254c0-.137 0-.274.07-.344.068-.344.205-.62.55-.688.137-.07.345-.137.482-.137h15.282c.138 0 .345 0 .481-.07.414-.068.69-.276.69-.688.068-.276.068-.481.068-.757V24.549c0-.276 0-.483-.069-.757 0-.484-.343-.827-.825-.895h-25.679c-.205 0-.343 0-.48.068-.413.069-.62.275-.689.689 0 .206-.069.343-.069.549v47.499c0 .139 0 .345.07.483.068.413.275.689.62.757.137 0 .275.069.412.069h19.624z"/></g></g></svg>