<svg xmlns="http://www.w3.org/2000/svg" width="99" height="121" viewBox="0 0 99 121"><g><g><path fill="#f79520" d="M98.41 69.371c0 4.62-2.348 8.698-5.912 11.111a13.316 13.316 0 0 1 2.685 8.014c0 4.98-2.736 9.326-6.777 11.637a13.334 13.334 0 0 1 2.29 7.486c0 7.393-6.015 13.408-13.407 13.408H42.435c-23.209 0-42.092-18.884-42.092-42.094 0-11.269 4.396-21.858 12.382-29.816 11.338-11.715 15.767-25.57 19.027-37.635a15.084 15.084 0 0 1 7.688-9.489 15.04 15.04 0 0 1 12.157-.66 14.976 14.976 0 0 1 9.394 16.997l-3.71 18.51h28.354c7.392 0 13.407 6.014 13.407 13.408 0 3.906-1.69 7.416-4.363 9.87 2.305 2.408 3.73 5.665 3.73 9.253zM39.087 80.864c.09-.126.185-.245.277-.369a13.657 13.657 0 0 1 .992-1.183c.231-.246.474-.48.723-.708.065-.06.122-.127.19-.185-4.2 2.96-9.067 4.002-13.595 4.002-4.523 0-8.703-1.028-11.536-2.186a3.847 3.847 0 0 1 2.901-7.123c.597.24 13.95 5.446 20.894-4.058.008-.366.021-.73.06-1.09.015-.158.048-.31.071-.467.042-.302.083-.602.144-.897.04-.182.093-.358.14-.538.066-.26.13-.523.211-.779.06-.187.134-.366.202-.549.088-.238.174-.478.276-.709.08-.185.172-.362.261-.542.108-.22.215-.44.335-.655.1-.177.21-.347.317-.52.127-.204.254-.407.391-.603.118-.169.244-.33.37-.493.144-.188.29-.374.444-.555.134-.155.274-.305.415-.455.162-.172.326-.342.497-.505.067-.064.126-.135.194-.197-.123-.128-.232-.269-.349-.402-.127-.143-.256-.283-.377-.432-.145-.18-.28-.37-.417-.557-.112-.155-.229-.307-.335-.468-.129-.194-.245-.397-.365-.598-.097-.165-.2-.327-.29-.497-.112-.208-.209-.426-.31-.64-.08-.173-.167-.34-.24-.517-.094-.225-.17-.456-.252-.686-.063-.177-.133-.35-.188-.53-.076-.247-.132-.5-.193-.75-.043-.173-.094-.34-.129-.516-.058-.285-.094-.578-.133-.87-.02-.147-.05-.292-.066-.44a13.675 13.675 0 0 1-.068-1.349c0-.64.061-1.266.148-1.883a13.35 13.35 0 0 1 .486-2.183c.023-.07.052-.135.075-.205.175-.518.385-1.02.62-1.508.055-.118.11-.235.168-.35.27-.523.568-1.025.902-1.504.062-.088.13-.17.193-.258.307-.42.637-.819.99-1.199.074-.082.146-.168.223-.247.405-.417.837-.804 1.293-1.166.101-.08.205-.153.307-.23.425-.317.866-.612 1.327-.878.07-.04.135-.086.206-.125a13.276 13.276 0 0 1 1.604-.744c.06-.024.114-.058.175-.082l4.183-20.868a7.308 7.308 0 0 0-4.584-8.295 7.344 7.344 0 0 0-2.614-.487 7.277 7.277 0 0 0-3.315.807 7.285 7.285 0 0 0-3.76 4.644c-3.51 12.992-8.314 27.948-20.97 41.025-6.579 6.556-10.174 15.211-10.174 24.421 0 15.677 10.541 28.94 24.907 33.071-.026-.076-.044-.155-.069-.23a12.296 12.296 0 0 1-.128-.426 13.54 13.54 0 0 1-.202-.78c-.032-.146-.065-.289-.092-.435a13.263 13.263 0 0 1-.13-.856c-.017-.129-.038-.258-.05-.388a13.669 13.669 0 0 1-.065-1.27c0-.559.046-1.108.113-1.65.02-.16.047-.317.072-.475.065-.4.146-.796.246-1.184.037-.147.071-.295.113-.439.15-.51.32-1.01.525-1.493.02-.046.045-.088.065-.134.193-.439.411-.862.647-1.274.078-.136.162-.267.244-.4.208-.335.43-.659.666-.974.085-.112.166-.228.253-.338.324-.404.667-.792 1.034-1.156.055-.055.117-.104.173-.158.321-.307.658-.597 1.008-.87.123-.099.25-.19.377-.284.323-.235.655-.454 1-.66.08-.049.152-.109.234-.157-.009-.014-.016-.03-.026-.045a13.392 13.392 0 0 1-.827-1.442 14.3 14.3 0 0 1-.19-.393 13.422 13.422 0 0 1-.638-1.62c0-.005-.002-.009-.003-.013a13.28 13.28 0 0 1-.394-1.708 12.764 12.764 0 0 1-.067-.443 13.223 13.223 0 0 1-.138-1.813c0-.528.04-1.047.098-1.559.02-.162.05-.319.074-.479a13.268 13.268 0 0 1 .333-1.56c.094-.337.202-.666.321-.99.055-.15.105-.3.164-.448.18-.442.378-.873.602-1.289.01-.019.017-.038.026-.056.236-.433.5-.847.78-1.25zm38.201 32.472a5.722 5.722 0 0 0 5.716-5.717 5.722 5.722 0 0 0-5.716-5.716H45.612a5.722 5.722 0 0 0-5.717 5.716 5.723 5.723 0 0 0 5.717 5.717zm4.487-19.124a5.722 5.722 0 0 0 5.716-5.716 5.723 5.723 0 0 0-5.716-5.718H50.1a5.727 5.727 0 0 0-5.717 5.718 5.726 5.726 0 0 0 4.566 5.6c.372.076.757.116 1.151.116zm3.225-19.124a5.723 5.723 0 0 0 5.717-5.717 5.722 5.722 0 0 0-5.717-5.716H53.324a5.722 5.722 0 0 0-5.715 5.716 5.722 5.722 0 0 0 5.715 5.717zm.634-19.124a5.723 5.723 0 0 0 5.716-5.716 5.724 5.724 0 0 0-5.716-5.717H53.958a5.723 5.723 0 0 0-5.717 5.717 5.722 5.722 0 0 0 5.717 5.716z"/></g></g></svg>